<svg width="100" height="100" viewBox="0 0 100 100" fill="none" xmlns="http://www.w3.org/2000/svg">
  <rect width="100" height="100" fill="#F3F4F6"/>
  <path d="M35 30H65C67.7614 30 70 32.2386 70 35V65C70 67.7614 67.7614 70 65 70H35C32.2386 70 30 67.7614 30 65V35C30 32.2386 32.2386 30 35 30Z" stroke="#9CA3AF" stroke-width="2"/>
  <path d="M30 60L43.3333 46.6667C44.7189 45.2811 46.9478 45.2811 48.3333 46.6667L70 68.3333" stroke="#9CA3AF" stroke-width="2"/>
  <path d="M53.3333 51.6667L60 45C61.3856 43.6144 63.6144 43.6144 65 45L70 50" stroke="#9CA3AF" stroke-width="2"/>
  <circle cx="45" cy="40" r="5" stroke="#9CA3AF" stroke-width="2"/>
</svg> 